HIERARCHY
ROOT Hips
{
	OFFSET 0.00000 0.00000 0.00000
	CHANNELS 6 Xposition Yposition Zposition Zrotation Yrotation Xrotation 
	JOINT LHipJoint
	{
		OFFSET 0 0 0
		CHANNELS 3 Zrotation Yrotation Xrotation
		JOINT LeftUpLeg
		{
			OFFSET 1.62329 -1.80800 0.67318
			CHANNELS 3 Zrotation Yrotation Xrotation
			JOINT LeftLeg
			{
				OFFSET 2.57139 -7.06484 0.00000
				CHANNELS 3 Zrotation Yrotation Xrotation
				JOINT LeftFoot
				{
					OFFSET 2.52017 -6.92413 0.00000
					CHANNELS 3 Zrotation Yrotation Xrotation
					JOINT LeftToeBase
					{
						OFFSET 0.23295 -0.64001 2.10214
						CHANNELS 3 Zrotation Yrotation Xrotation
						End Site
						{
							OFFSET 0.00000 -0.00000 1.10139
						}
					}
				}
			}
		}
	}
	JOINT RHipJoint
	{
		OFFSET 0 0 0
		CHANNELS 3 Zrotation Yrotation Xrotation
		JOINT RightUpLeg
		{
			OFFSET -1.48061 -1.80800 0.67318
			CHANNELS 3 Zrotation Yrotation Xrotation
			JOINT RightLeg
			{
				OFFSET -2.63258 -7.23296 0.00000
				CHANNELS 3 Zrotation Yrotation Xrotation
				JOINT RightFoot
				{
					OFFSET -2.54779 -7.00000 0.00000
					CHANNELS 3 Zrotation Yrotation Xrotation
					JOINT RightToeBase
					{
						OFFSET -0.23067 -0.63376 2.12161
						CHANNELS 3 Zrotation Yrotation Xrotation
						End Site
						{
							OFFSET -0.00000 -0.00000 1.11000
						}
					}
				}
			}
		}
	}
	JOINT LowerBack
	{
		OFFSET 0 0 0
		CHANNELS 3 Zrotation Yrotation Xrotation
		JOINT Spine
		{
			OFFSET -0.02108 2.07573 -0.16981
			CHANNELS 3 Zrotation Yrotation Xrotation
			JOINT Spine1
			{
				OFFSET 0.05070 2.08439 -0.03141
				CHANNELS 3 Zrotation Yrotation Xrotation
				JOINT Neck
				{
					OFFSET 0 0 0
					CHANNELS 3 Zrotation Yrotation Xrotation
					JOINT Neck1
					{
						OFFSET -0.10731 1.60408 0.31370
						CHANNELS 3 Zrotation Yrotation Xrotation
						JOINT Head
						{
							OFFSET 0.08411 1.65679 -0.30822
							CHANNELS 3 Zrotation Yrotation Xrotation
							End Site
							{
								OFFSET 0.03911 1.69149 -0.14146
							}
						}
					}
				}
				JOINT LeftShoulder
				{
					OFFSET 0 0 0
					CHANNELS 3 Zrotation Yrotation Xrotation
					JOINT LeftArm
					{
						OFFSET 3.52315 0.73219 -0.54694
						CHANNELS 3 Zrotation Yrotation Xrotation
						JOINT LeftForeArm
						{
							OFFSET 5.32462 -0.00000 -0.00000
							CHANNELS 3 Zrotation Yrotation Xrotation
							JOINT LeftHand
							{
								OFFSET 3.48402 -0.00000 -0.00000
								CHANNELS 3 Zrotation Yrotation Xrotation
								JOINT LeftFingerBase
								{
									OFFSET 0 0 0
									CHANNELS 3 Zrotation Yrotation Xrotation
									JOINT LeftHandIndex1
									{
										OFFSET 0.57248 -0.00000 -0.00000
										CHANNELS 3 Zrotation Yrotation Xrotation
										End Site
										{
											OFFSET 0.46154 -0.00000 -0.00000
										}
									}
								}
								JOINT LThumb
								{
									OFFSET 0 0 0
									CHANNELS 3 Zrotation Yrotation Xrotation
									End Site
									{
										OFFSET 0.46859 -0.00000 0.46859
									}
								}
							}
						}
					}
				}
				JOINT RightShoulder
				{
					OFFSET 0 0 0
					CHANNELS 3 Zrotation Yrotation Xrotation
					JOINT RightArm
					{
						OFFSET -3.41766 0.93592 -0.10019
						CHANNELS 3 Zrotation Yrotation Xrotation
						JOINT RightForeArm
						{
							OFFSET -5.33589 -0.00000 -0.00000
							CHANNELS 3 Zrotation Yrotation Xrotation
							JOINT RightHand
							{
								OFFSET -3.64134 -0.00000 -0.00000
								CHANNELS 3 Zrotation Yrotation Xrotation
								JOINT RightFingerBase
								{
									OFFSET 0 0 0
									CHANNELS 3 Zrotation Yrotation Xrotation
									JOINT RightHandIndex1
									{
										OFFSET -0.73481 -0.00000 -0.00000
										CHANNELS 3 Zrotation Yrotation Xrotation
										End Site
										{
											OFFSET -0.59242 -0.00000 -0.00000
										}
									}
								}
								JOINT RThumb
								{
									OFFSET 0 0 0
									CHANNELS 3 Zrotation Yrotation Xrotation
									End Site
									{
										OFFSET -0.60147 -0.00000 0.60147
									}
								}
							}
						}
					}
				}
			}
		}
	}
}
MOTION
Frames: 5
Frame Time: 0.0363636
0.00 0.00 0.00 -180.1390 141.2620 -173.7600 0.0000 0.0000 0.0000 -7.7688 -27.3164 -7.3378 2.4871 9.8144 28.3778 -0.0864 -17.9740 -11.8232 1.7179 -8.2520 -23.4821 0.0000 0.0000 0.0000 16.7019 18.4992 -23.6655 -3.5438 -11.5272 34.0794 0.3365 11.1941 -0.7724 -1.2309 -7.0360 19.8219 -2.2781 -1.7859 4.6368 4.4605 -2.4046 1.9306 6.0186 -1.2249 -0.3192 -10.8743 -7.1640 -5.7258 1.4656 -8.2865 38.7957 1.4038 -4.6856 15.1012 -0.0000 0.0000 0.0000 -87.4278 5.5742 15.6575 16.2019 -25.7936 -3.7334 -0.0000 -0.0000 3.6046 15.9634 24.4535 6.7531 -7.1250 0.0000 -0.0000 -14.3108 54.7188 -3.4697 -0.0000 0.0000 0.0000 76.5090 0.6943 28.8745 -37.1408 46.2817 -16.3417 0.0000 0.0000 14.8212 -23.3534 6.1056 -2.6294 7.1250 -0.0000 -0.0000 2.4925 -23.3355 1.3025
0.00 0.00 0.00 -176.0700 200.8790 -175.0570 0.0000 0.0000 0.0000 -23.6219 -0.4215 -11.0835 1.7851 8.4033 23.9459 1.1109 -6.5609 -18.8187 0.8222 -5.7854 -16.1631 0.0000 0.0000 0.0000 13.9557 4.0589 -29.7456 -6.6559 -15.0351 47.5605 -1.8552 -6.1299 -28.5350 -0.0966 -2.0044 5.5178 -7.2006 -3.7328 2.9081 3.7103 -5.1736 1.0870 8.0152 -2.6694 0.4891 -13.7273 -6.6136 -5.5312 2.0030 -8.7819 39.3671 1.9066 -5.7164 15.6287 0.0000 -0.0000 0.0000 -84.1183 2.6608 6.7058 17.5021 -27.5149 -4.3167 -0.0000 -0.0000 1.7255 19.3726 22.7556 7.7451 -7.1250 0.0000 -0.0000 -10.1032 53.6684 -2.1706 0.0000 -0.0000 0.0000 78.9638 -5.8121 16.3428 -26.8165 38.0037 -9.3859 0.0000 0.0000 18.7038 -20.4476 1.3660 -0.5092 7.1250 -0.0000 -0.0000 4.7556 -28.5096 1.9151
0.00 0.00 0.00 -183.9310 230.0470 -164.2440 0.0000 0.0000 0.0000 3.5824 -12.5182 -30.3449 5.2799 13.6922 42.0184 0.0616 -14.7748 -11.0557 2.1139 -9.0995 -26.1070 0.0000 0.0000 0.0000 1.3706 6.2820 -33.3337 -3.0629 -10.7961 31.5954 -0.2360 -4.1733 -11.6797 -0.1409 2.4190 -6.6650 -2.2519 -1.0331 12.5922 2.2188 -1.6591 4.4595 3.8242 -0.8932 -2.2469 -11.9266 -0.5465 -8.3186 3.8787 -0.7092 40.2437 3.6194 -1.9569 15.7089 0.0000 -0.0000 0.0000 -77.6364 -0.9784 51.8833 34.7593 -44.6395 -14.6440 -0.0000 -0.0000 6.9562 25.1042 13.4622 6.2249 -7.1250 0.0000 -0.0000 -2.1130 44.7770 0.0116 0.0000 -0.0000 0.0000 72.5847 -6.9823 48.4122 -61.5984 56.7210 -35.6742 0.0000 0.0000 25.2889 -35.4459 6.3903 -4.5302 7.1250 -0.0000 -0.0000 -6.3517 -22.1684 -3.5065
0.00 0.00 0.00 -174.6040 229.2930 -166.8630 0.0000 0.0000 0.0000 -3.5971 -9.1332 -67.6584 15.2833 19.4580 76.0887 0.6639 -17.5035 -17.8579 1.3350 -7.3161 -20.6553 0.0000 0.0000 0.0000 -7.3325 4.9513 -68.8006 -15.6174 -19.5331 77.0896 -0.9075 8.6893 -17.1561 -1.3029 7.2312 -20.4020 0.1950 0.5592 27.4397 3.0697 0.6370 8.2961 3.0874 0.1284 -5.9461 -10.8143 -1.0678 -11.0704 1.8657 -0.1411 35.1954 2.5968 -1.3901 13.8617 -0.0000 0.0000 0.0000 -73.7180 -3.0564 61.1606 60.0766 -56.3303 -34.4048 -0.0000 -0.0000 17.4190 45.4807 9.7298 9.7517 -7.1250 0.0000 -0.0000 16.8691 43.0692 -0.8291 -0.0000 0.0000 0.0000 50.9300 1.3824 68.3312 -100.3657 59.5901 -68.9646 0.0000 0.0000 41.6862 -33.4805 13.4320 -8.7344 7.1250 -0.0000 -0.0000 -4.1391 -14.0314 -3.0201
0.00 0.00 0.00 -174.5280 229.2000 -167.8040 0.0000 0.0000 0.0000 -0.8768 -6.9367 -78.1538 20.3212 19.9975 90.9392 0.2242 -23.1624 -17.8884 0.1728 -2.6780 -7.3835 0.0000 0.0000 0.0000 -10.4504 3.0643 -78.8622 -20.6084 -19.9911 91.7792 -0.9991 11.2299 -18.3612 -1.4070 7.5028 -21.2138 -0.3255 0.6518 31.0218 3.5357 0.5704 9.3344 3.9774 0.0418 -6.4714 -10.8587 -0.1349 -11.3514 0.2388 1.8392 33.5395 2.2133 -0.6601 13.0864 -0.0000 0.0000 0.0000 -69.0599 -0.8053 61.5518 75.8333 -59.2279 -47.7631 -0.0000 -0.0000 15.5795 53.8350 12.6242 16.6468 -7.1250 0.0000 -0.0000 26.4381 48.8273 2.6671 -0.0000 0.0000 0.0000 47.7768 -1.6920 67.6376 -116.5561 57.1599 -82.7790 0.0000 0.0000 47.9957 -40.7492 10.1878 -8.6653 7.1250 -0.0000 -0.0000 -9.5210 -16.7505 -6.4637
